<svg width="16" height="20" viewBox="0 0 16 20" fill="none" xmlns="http://www.w3.org/2000/svg">
<path d="M11.8306 12.276C10.6958 13.0601 9.34198 13.5023 7.86869 13.5023C6.39541 13.5023 5.04158 13.0601 3.90675 12.276C2.21446 13.7637 1.09955 16.1762 1 18.9304H14.7374C14.6378 16.1762 13.5229 13.7637 11.8306 12.276Z" stroke="#A6A6A6" stroke-miterlimit="10" stroke-linecap="round" stroke-linejoin="round"/>
<path d="M7.86873 11.4919C10.6726 11.4919 12.9456 9.19668 12.9456 6.36539C12.9456 3.5341 10.6726 1.23889 7.86873 1.23889C5.06486 1.23889 2.79187 3.5341 2.79187 6.36539C2.79187 9.19668 5.06486 11.4919 7.86873 11.4919Z" stroke="#A6A6A6" stroke-miterlimit="10"/>
<path d="M10.1582 6.46594C10.1582 7.69228 9.18268 8.67738 7.96822 8.67738C6.75375 8.67738 5.7782 7.69228 5.7782 6.46594" stroke="#A6A6A6" stroke-miterlimit="10" stroke-linecap="round" stroke-linejoin="round"/>
</svg>
