<svg width="24" height="20" viewBox="0 0 24 20" fill="none" xmlns="http://www.w3.org/2000/svg">
<path d="M3.03289 18.9303C1.9148 18.9303 1 17.9974 1 16.8572V3.38206C1 2.24186 1.9148 1.30896 3.03289 1.30896" stroke="#A6A6A6" stroke-miterlimit="10" stroke-linecap="round" stroke-linejoin="round"/>
<path d="M20.5665 1.30896C21.6846 1.30896 22.5994 2.24186 22.5994 3.38206V16.8572C22.5994 17.9974 21.6846 18.9303 20.5665 18.9303H3.03284" stroke="#A6A6A6" stroke-miterlimit="10" stroke-linecap="round" stroke-linejoin="round"/>
<path d="M5.5741 1.30896H18.0255" stroke="#A6A6A6" stroke-miterlimit="10" stroke-linecap="round" stroke-linejoin="round"/>
<path d="M9.13819 4.33677C9.67079 4.33677 10.1146 4.78938 10.1146 5.33251V8.59131C10.1146 9.13445 9.67079 9.58706 9.13819 9.58706H4.43357C3.90097 9.58706 3.45714 9.13445 3.45714 8.59131V5.33251C3.45714 4.78938 3.90097 4.33677 4.43357 4.33677H9.13819ZM9.13819 3.88416H4.43357C3.65686 3.88416 3.01331 4.51781 3.01331 5.33251V8.59131C3.01331 9.38338 3.65686 10.0397 4.43357 10.0397H9.13819C9.9149 10.0397 10.5585 9.38338 10.5585 8.59131V5.33251C10.5585 4.51781 9.93709 3.88416 9.13819 3.88416Z" fill="#A6A6A6" stroke="#A6A6A6" stroke-width="0.5"/>
<path d="M3.5802 12.8054H9.8157" stroke="#A6A6A6" stroke-miterlimit="10" stroke-linecap="round" stroke-linejoin="round"/>
<path d="M3.5802 15.6398H9.8157" stroke="#A6A6A6" stroke-miterlimit="10" stroke-linecap="round" stroke-linejoin="round"/>
<path d="M14.0703 15.7539C13.5377 15.7539 13.0939 15.3013 13.0939 14.7582L13.0939 11.4994C13.0939 10.9562 13.5377 10.5036 14.0703 10.5036L18.7749 10.5036C19.3075 10.5036 19.7514 10.9562 19.7514 11.4994L19.7514 14.7582C19.7514 15.3013 19.3075 15.7539 18.7749 15.7539L14.0703 15.7539ZM14.0703 16.2065L18.7749 16.2065C19.5516 16.2065 20.1952 15.5729 20.1952 14.7582L20.1952 11.4994C20.1952 10.7073 19.5516 10.051 18.7749 10.051L14.0703 10.051C13.2936 10.051 12.65 10.7073 12.65 11.4994L12.65 14.7582C12.65 15.5729 13.2714 16.2065 14.0703 16.2065Z" fill="#A6A6A6" stroke="#A6A6A6" stroke-width="0.5"/>
<path d="M19.6283 7.28528L13.3928 7.28528" stroke="#A6A6A6" stroke-miterlimit="10" stroke-linecap="round" stroke-linejoin="round"/>
<path d="M19.6283 4.45093L13.3928 4.45093" stroke="#A6A6A6" stroke-miterlimit="10" stroke-linecap="round" stroke-linejoin="round"/>
</svg>
