<svg width="26" height="21" viewBox="0 0 26 21" fill="none" xmlns="http://www.w3.org/2000/svg">
<path d="M6.15112 17.3348C6.47783 17.7371 6.98046 17.9885 7.53335 17.9885H22.3609L24.8237 20V16.1782V13.2365V6.52326C24.8237 5.99525 24.5975 5.51753 24.2206 5.19067" stroke="#FF4E00" stroke-miterlimit="10" stroke-linecap="round" stroke-linejoin="round"/>
<path d="M22.2481 9.04132V2.653C22.2481 1.56723 21.35 0.683472 20.2465 0.683472H3.00164C1.89817 0.683472 1 1.56723 1 2.653V10.0008V13.2329V17.4244L3.74583 15.2024H11.877" stroke="#FF4E00" stroke-miterlimit="10" stroke-linecap="round" stroke-linejoin="round"/>
<path d="M15.8093 14.8489H20.223C21.3394 14.8489 22.2482 13.9546 22.2482 12.856V11.6295" stroke="#FF4E00" stroke-miterlimit="10" stroke-linecap="round" stroke-linejoin="round"/>
<path d="M6.15112 3.90283H17.0971" stroke="#FF4E00" stroke-miterlimit="10" stroke-linecap="round" stroke-linejoin="round"/>
<path d="M6.15112 7.76624H17.0971" stroke="#FF4E00" stroke-miterlimit="10" stroke-linecap="round" stroke-linejoin="round"/>
<path d="M6.15112 10.9856H17.0971" stroke="#FF4E00" stroke-miterlimit="10" stroke-linecap="round" stroke-linejoin="round"/>
</svg>
